<svg width="209" height="209" viewBox="0 0 209 209" fill="none" xmlns="http://www.w3.org/2000/svg">
<path d="M139.022 148.37C137.969 149.308 137.011 150.225 135.989 151.062C129.719 156.191 122.657 159.681 114.693 161.279C113.429 161.532 113.431 161.528 113.431 162.793C113.431 164.494 113.421 166.196 113.425 167.896C113.431 170.392 112.721 172.727 111.803 175.007C110.837 177.409 109.688 179.722 108.211 181.857C107.864 182.359 107.478 182.842 107.053 183.277C105.525 184.849 103.322 184.857 101.82 183.249C101.2 182.583 100.681 181.808 100.185 181.04C98.5892 178.573 97.3769 175.917 96.4543 173.129C95.9257 171.537 95.644 169.9 95.6379 168.218C95.6297 166.314 95.6053 164.408 95.5991 162.504C95.5951 161.467 95.5951 161.51 94.6215 161.25C92.2253 160.61 89.7986 160.052 87.4636 159.234C81.159 157.028 75.5237 153.674 70.6926 149.025C70.5702 148.906 70.4375 148.798 70.3232 148.674C69.9885 148.317 69.7048 148.38 69.3802 148.717C68.6496 149.476 67.9087 150.227 67.1351 150.941C66.7575 151.29 66.6984 151.637 66.7882 152.121C66.9576 153.019 67.1208 153.927 67.1617 154.838C67.2658 157.105 66.4636 159.075 64.8104 160.599C62.9878 162.281 61.059 163.849 59.1527 165.439C56.8545 167.353 54.5339 169.243 52.2153 171.135C51.8745 171.413 51.5193 171.686 51.1356 171.896C50.6335 172.17 50.2008 172.076 49.8375 171.7C49.5008 171.351 49.4212 170.835 49.6906 170.384C49.8436 170.125 50.062 169.898 50.2743 169.682C53.1705 166.712 56.0728 163.747 58.9711 160.775C59.3038 160.434 59.6405 160.091 59.9181 159.707C60.3671 159.087 60.3161 158.528 59.8263 158.056C59.3119 157.56 58.769 157.481 58.1853 157.975C57.2525 158.764 56.381 159.626 55.4952 160.469C53.0093 162.84 50.5335 165.22 48.0435 167.588C47.8006 167.818 47.5189 168.023 47.225 168.184C46.8638 168.382 46.4923 168.335 46.2025 168.02C45.9229 167.716 45.8351 167.359 46.0678 166.994C46.2474 166.71 46.4433 166.426 46.678 166.19C49.6273 163.224 52.5868 160.269 55.5401 157.307C55.8769 156.97 56.2259 156.64 56.5137 156.264C56.9117 155.744 56.8647 155.213 56.4504 154.789C56.0259 154.352 55.5034 154.274 54.9768 154.617C54.6666 154.821 54.3788 155.07 54.1114 155.327C51.0887 158.22 48.0741 161.12 45.0534 164.014C44.7595 164.296 44.4513 164.571 44.1104 164.788C43.6451 165.081 43.1736 165.034 42.8919 164.739C42.596 164.428 42.5695 163.975 42.8491 163.518C42.9715 163.318 43.1348 163.138 43.3001 162.973C46.3045 159.967 49.315 156.964 52.3214 153.96C52.6092 153.672 52.9113 153.39 53.1542 153.066C53.5909 152.49 53.5787 152.029 53.1746 151.596C52.7521 151.143 52.1439 151.035 51.5989 151.374C51.2846 151.57 51.007 151.829 50.7335 152.084C48.0945 154.54 45.4616 157.003 42.8226 159.458C42.2756 159.969 41.7224 160.475 41.1408 160.944C40.4366 161.512 39.9692 161.514 39.5304 161.022C39.065 160.503 39.0814 159.875 39.612 159.289C41.5735 157.119 43.543 154.958 45.5106 152.792C47.1577 150.98 48.7782 149.145 50.456 147.361C51.4377 146.316 52.5602 145.435 53.9318 144.924C56.1116 144.112 58.271 144.194 60.3753 145.143C61.0162 145.431 61.4366 145.347 61.8897 144.853C62.5551 144.124 63.249 143.422 63.9573 142.736C64.2981 142.408 64.2736 142.171 64.0083 141.789C62.7694 140.001 61.4815 138.238 60.3753 136.37C57.7281 131.899 55.636 127.172 54.6727 122.038C54.4135 120.661 53.8583 120.114 52.546 119.722C47.4006 118.181 42.3531 116.338 37.3792 114.303C36.7832 114.06 36.1852 113.793 35.6443 113.452C33.4584 112.074 33.5216 108.956 35.8157 107.755C37.1322 107.066 38.5527 106.551 39.961 106.061C44.0043 104.655 48.0639 103.302 52.1194 101.93C52.6011 101.767 53.0889 101.614 53.5848 101.496C54.0339 101.387 54.238 101.173 54.3237 100.681C55.1135 96.2033 56.5076 91.9192 58.4812 87.8208C59.9936 84.6838 61.8591 81.7672 63.9695 79.0016C64.1348 78.7852 64.292 78.5628 64.4512 78.3423C64.6206 78.1097 64.5798 77.926 64.3655 77.7239C63.3246 76.7463 62.2775 75.7727 61.2754 74.7563C60.8815 74.3562 60.5182 74.3011 60.0038 74.4542C58.4037 74.9298 56.7913 74.942 55.1748 74.4991C53.4195 74.0195 51.9336 73.1092 50.7376 71.7397C48.1659 68.7924 45.6085 65.833 43.0307 62.8919C41.5959 61.255 40.1305 59.6466 38.6854 58.0179C38.4609 57.7648 38.2364 57.4995 38.0731 57.2056C37.8057 56.7239 37.9017 56.2381 38.2731 55.9095C38.6426 55.583 39.1059 55.5891 39.5671 55.9585C39.7794 56.1279 39.959 56.3341 40.1509 56.528C42.3307 58.7241 44.5084 60.9202 46.6903 63.1143C46.8821 63.3062 47.0924 63.4817 47.3148 63.6389C47.9067 64.0532 48.368 64.0124 48.8517 63.5205C49.3089 63.0551 49.3538 62.6469 48.964 62.0591C48.7782 61.7775 48.5578 61.5121 48.321 61.2692C46.329 59.2221 44.3288 57.1811 42.3347 55.136C42.051 54.8441 41.7653 54.5482 41.5183 54.2237C41.0469 53.6052 41.0775 53.0031 41.5673 52.5888C41.9919 52.2296 42.4409 52.2684 43.0062 52.8052C44.1635 53.9073 45.2983 55.0339 46.4351 56.1565C47.67 57.375 48.8946 58.6016 50.1314 59.8201C50.3478 60.0344 50.5866 60.2283 50.8295 60.4161C51.5112 60.9447 52.2541 60.7814 52.6807 60.0283C52.8746 59.6854 52.8317 59.3589 52.6153 59.0731C52.2867 58.6404 51.9418 58.2179 51.5642 57.8301C49.6681 55.8789 47.7536 53.944 45.8555 51.9969C45.4534 51.5846 45.0534 51.1601 44.7125 50.6947C44.3574 50.211 44.4513 49.7273 44.884 49.3293C45.2963 48.9517 45.6514 48.9252 46.1535 49.3456C46.727 49.8253 47.2577 50.3539 47.7924 50.8784C49.6885 52.7337 51.5765 54.5972 53.4685 56.4545C53.5665 56.5504 53.6685 56.6382 53.7726 56.728C54.5686 57.4158 54.9972 57.4321 55.6095 56.8035C56.1402 56.2606 56.13 55.7871 55.436 55.0299C54.5176 54.0277 53.5481 53.0705 52.5909 52.1051C51.4418 50.9437 50.2804 49.7987 49.1313 48.6374C48.8211 48.3231 48.5129 48.0006 48.2578 47.6434C47.8659 47.0964 47.8884 46.7331 48.2578 46.3637C48.5823 46.0392 49.1273 45.9596 49.5722 46.2535C49.9947 46.5331 50.3784 46.876 50.7621 47.2128C52.7337 48.9374 54.6931 50.6723 56.6668 52.3949C58.7425 54.2073 60.8304 56.0014 62.9021 57.8158C63.4633 58.3077 64.0205 58.8159 64.5165 59.3731C66.6473 61.7632 67.3147 64.539 66.4902 67.6209C66.3024 68.3271 66.4269 68.7781 66.9025 69.2415C67.9719 70.2783 69.0292 71.3274 70.0742 72.356C71.4968 71.211 72.8581 70.0252 74.3073 68.9598C80.1364 64.6737 86.6105 61.7795 93.6438 60.1181C94.0725 60.0161 94.5092 59.9079 94.946 59.8854C95.5542 59.8548 95.6502 59.5303 95.6359 59.0098C95.5951 57.6158 95.5359 56.2198 95.5869 54.8278C95.9073 46.1086 99.4995 38.9038 105.816 32.9971C106.506 32.3521 107.306 31.8072 108.115 31.3133C109.039 30.7479 110.066 30.5316 111.148 30.8479C112.531 31.2541 113.391 32.3725 113.44 33.8788C113.466 34.6952 113.431 35.5116 113.431 36.328C113.434 43.7451 113.438 51.1621 113.442 58.5792C113.442 58.7159 113.454 58.8527 113.44 58.9874C113.385 59.4915 113.609 59.7201 114.107 59.8058C116.589 60.2406 118.995 60.9529 121.375 61.7775C125.545 63.2225 129.429 65.2166 133.093 67.6719C134.991 68.9455 136.756 70.3783 138.452 71.9029C138.575 72.0132 138.707 72.1152 138.897 72.2724C139.879 71.2417 140.83 70.2273 141.802 69.2353C142.165 68.8618 142.191 68.5047 141.969 68.0454C138.916 61.7673 141.185 52.9439 147.91 48.1925C151.892 45.3799 156.319 44.3207 161.138 44.8779C162.11 44.9901 163.091 45.1799 164.018 45.484C167.874 46.7535 170.072 49.5212 170.802 53.4318C171.484 57.0831 171.053 60.6876 169.859 64.1859C168.57 67.9617 166.404 71.1355 162.973 73.2704C158.411 76.1115 153.607 76.7585 148.586 74.5236C148.112 74.3134 147.831 74.3379 147.459 74.7277C146.569 75.6625 145.61 76.532 144.692 77.4423C144.196 77.9321 144.222 77.9382 144.626 78.522C146.022 80.5303 147.527 82.4754 148.776 84.5695C151.674 89.4271 153.609 94.6725 154.672 100.232C154.805 100.924 155.048 101.308 155.793 101.557C161.112 103.326 166.412 105.155 171.702 107.008C172.423 107.261 173.143 107.662 173.715 108.162C175.448 109.684 175.278 112.082 173.378 113.393C172.825 113.774 172.19 114.056 171.566 114.315C166.318 116.491 160.961 118.359 155.525 120.004C154.931 120.183 154.629 120.422 154.501 121.057C152.964 128.574 149.913 135.407 145.188 141.473C145.084 141.608 144.973 141.736 144.861 141.865C144.647 142.114 144.653 142.353 144.888 142.583C145.759 143.443 146.635 144.298 147.498 145.165C147.806 145.473 148.094 145.339 148.429 145.218C149.129 144.967 149.833 144.694 150.558 144.549C153.644 143.928 156.27 144.877 158.477 147.041C159.569 148.112 160.591 149.253 161.612 150.392C164.038 153.105 166.447 155.832 168.855 158.558C169.147 158.887 169.441 159.228 169.655 159.607C169.974 160.169 169.851 160.652 169.374 161.063C168.9 161.471 168.433 161.501 167.898 161.114C167.596 160.895 167.32 160.638 167.049 160.381C164.181 157.673 161.318 154.958 158.45 152.25C158.13 151.947 157.791 151.664 157.452 151.38C156.744 150.786 155.95 150.743 155.164 151.151C154.305 151.596 153.729 152.294 153.672 153.311C153.635 153.982 154.033 154.468 154.462 154.911C155.574 156.06 156.705 157.189 157.828 158.326C159.765 160.285 161.701 162.242 163.632 164.208C163.918 164.498 164.183 164.812 164.42 165.145C164.777 165.645 164.755 166.01 164.4 166.441C164.069 166.841 163.494 166.967 163.018 166.688C162.73 166.518 162.477 166.277 162.234 166.041C159.185 163.077 156.142 160.11 153.097 157.142C152.878 156.928 152.662 156.709 152.425 156.517C151.372 155.666 150.276 155.756 149.247 156.768C148.298 157.701 148.17 158.993 149.037 159.971C150.006 161.063 151.06 162.081 152.08 163.128C154.191 165.298 156.307 167.461 158.413 169.635C158.624 169.853 158.813 170.102 158.967 170.364C159.277 170.888 159.236 171.276 158.871 171.662C158.473 172.082 157.968 172.219 157.491 171.954C157.079 171.723 156.691 171.435 156.328 171.133C152.746 168.153 149.17 165.167 145.598 162.173C145.024 161.693 144.473 161.185 143.943 160.659C141.83 158.564 141.14 155.985 141.81 153.166C142.134 151.801 141.906 150.909 140.85 150.094C140.369 149.723 139.969 149.247 139.528 148.823C139.387 148.676 139.228 148.549 139.022 148.37ZM68.67 112.709C68.721 112.897 68.7496 112.96 68.7537 113.025C69.1374 119.163 70.9865 124.826 74.3889 129.943C75.5135 131.635 76.8708 133.174 78.1342 134.774C78.3342 135.03 78.5526 135.379 78.9649 135.105C79.2077 134.944 79.4465 134.923 79.571 135.172C79.6568 135.342 79.6649 135.646 79.5649 135.793C79.3792 136.064 79.4547 136.207 79.6608 136.385C80.4323 137.052 81.1671 137.764 81.9692 138.393C87.5269 142.765 93.8173 145.382 100.853 146.155C101.389 146.214 101.61 146.367 101.659 146.935C101.847 149.1 102.108 151.262 102.308 153.427C102.569 156.27 102.816 159.116 103.037 161.963C103.265 164.912 103.453 167.865 103.667 170.815C103.684 171.047 103.716 171.311 103.837 171.496C103.988 171.729 104.257 172.074 104.439 172.054C104.716 172.021 104.998 171.749 105.208 171.517C105.325 171.388 105.316 171.133 105.331 170.933C105.525 168.218 105.731 165.506 105.898 162.791C106.229 157.462 106.708 152.147 107.343 146.845C107.4 146.371 107.559 146.22 108.021 146.184C110.229 146.014 112.391 145.575 114.509 144.941C120.008 143.292 124.863 140.516 129.066 136.603C129.372 136.317 129.788 136.093 129.38 135.528C129.172 135.238 129.527 134.821 129.807 134.993C130.501 135.417 130.776 134.903 131.125 134.525C136.213 128.992 139.21 122.502 140.042 115.021C140.128 114.254 140.201 113.487 140.287 112.658C142.185 112.523 144.012 112.382 145.843 112.264C151.135 111.923 156.428 111.595 161.718 111.252C162.053 111.229 162.397 111.172 162.712 111.062C162.865 111.009 163.071 110.784 163.057 110.658C163.036 110.462 162.881 110.247 162.722 110.111C162.612 110.015 162.402 110.015 162.234 110.003C159.318 109.792 156.403 109.574 153.486 109.38C149.788 109.135 146.09 108.917 142.391 108.678C141.718 108.635 141.044 108.553 140.373 108.488C140.271 107.792 140.146 107.098 140.071 106.4C139.265 98.9301 136.321 92.4029 131.425 86.733C131.117 86.3758 130.815 86.0104 130.503 85.641C130.296 85.8023 130.233 85.8798 130.151 85.9125C129.945 85.9941 129.731 86.0553 129.521 86.1247C129.513 85.9125 129.421 85.6512 129.509 85.4961C129.745 85.0838 129.521 84.8654 129.258 84.6287C128.321 83.7898 127.441 82.8775 126.439 82.1243C120.959 78.0076 114.832 75.5135 107.976 74.9155C107.517 74.8747 107.227 74.8175 107.17 74.2542C106.7 69.6558 106.192 65.0615 105.721 60.4651C105.48 58.1322 105.294 55.7912 105.071 53.4562C105.043 53.1542 104.974 52.848 104.861 52.5684C104.812 52.4459 104.618 52.3398 104.476 52.3153C104.396 52.301 104.224 52.45 104.196 52.5541C104.082 52.9786 103.963 53.4093 103.922 53.844C103.559 57.7362 103.241 61.6346 102.847 65.5227C102.549 68.4638 102.147 71.3968 101.816 74.3358C101.767 74.7746 101.583 74.8889 101.175 74.9216C97.8647 75.189 94.6766 76.0013 91.5865 77.1933C87.1575 78.9036 83.2122 81.3937 79.7466 84.6409C79.4894 84.8818 79.1894 85.0818 79.5731 85.4573C79.7751 85.6553 79.7609 85.8676 79.567 86.0839C79.3445 86.3309 79.122 86.2492 78.9567 86.0574C78.6485 85.7002 78.4301 85.9043 78.2056 86.1329C77.9913 86.3513 77.7831 86.5778 77.581 86.8064C74.2072 90.6374 71.7703 95.0011 70.213 99.8546C69.3782 102.457 68.968 105.141 68.8149 107.864C68.7904 108.292 68.7332 108.543 68.2087 108.576C65.2227 108.756 62.2387 108.976 59.2548 109.174C55.1503 109.447 51.0458 109.711 46.9413 109.982C46.7393 109.996 46.5045 109.976 46.3433 110.07C46.1637 110.174 45.9494 110.384 45.9351 110.562C45.9229 110.723 46.127 110.968 46.2964 111.06C46.527 111.182 46.8168 111.223 47.0842 111.241C50.3396 111.458 53.5971 111.674 56.8545 111.866C59.6364 112.031 62.4224 112.148 65.2043 112.323C66.3575 112.399 67.4984 112.576 68.67 112.709ZM76.8891 81.6488C77.2463 81.3345 77.5545 81.0753 77.8505 80.7997C81.2794 77.6137 85.2145 75.2339 89.5332 73.4725C92.4682 72.2764 95.5114 71.46 98.6545 71.011C99.6628 70.8661 99.7057 70.813 99.7608 69.8089C99.8485 68.1781 99.922 66.5473 99.9996 64.9186C100.016 64.5798 100.034 64.2389 100.024 63.8981C100.006 63.3184 99.9506 63.2776 99.3505 63.3041C99.2158 63.3103 99.0791 63.3307 98.9444 63.349C93.1581 64.1185 87.6943 65.8758 82.5305 68.6067C75.2849 72.4397 69.3578 77.73 64.9165 84.6225C60.6794 91.1987 58.2588 98.4198 57.6077 106.225C57.5505 106.919 57.6158 106.98 58.3363 106.908C60.161 106.723 61.9856 106.535 63.8103 106.349C64.8165 106.247 64.8369 106.227 64.9145 105.171C64.9329 104.935 64.941 104.696 64.9737 104.459C65.7901 98.7892 67.727 93.5275 70.8906 88.7515C71.9948 87.0861 73.3051 85.5553 74.5603 83.9939C75.2869 83.0918 75.3237 83.1183 74.4828 82.2835C74.048 81.8529 73.5807 81.4529 73.1745 80.9977C72.7112 80.4813 72.7255 80.0139 73.1398 79.5486C73.5194 79.122 74.0848 79.0404 74.6052 79.4139C74.989 79.6894 75.3176 80.0405 75.6564 80.3732C76.0605 80.7732 76.4462 81.1916 76.8891 81.6488ZM132.295 81.512C132.613 81.1569 132.886 80.8161 133.199 80.514C133.613 80.1119 134.031 79.7078 134.491 79.3649C135.027 78.9669 135.562 79.0751 136.019 79.5935C136.45 80.0833 136.444 80.314 135.928 80.9079C135.66 81.2141 135.356 81.4875 135.068 81.7753C133.531 83.3081 133.523 82.7632 134.942 84.394C137.646 87.5024 139.785 90.9497 141.367 94.7439C142.785 98.1484 143.802 101.661 144.143 105.353C144.222 106.219 144.292 106.257 145.12 106.341C146.506 106.48 147.892 106.612 149.276 106.755C149.782 106.806 150.286 106.9 150.794 106.929C151.456 106.968 151.462 106.949 151.46 106.253C151.458 105.947 151.458 105.637 151.409 105.337C151.113 103.526 150.884 101.7 150.484 99.9118C148.696 91.9151 145.069 84.8348 139.591 78.7485C132.766 71.1641 124.31 66.3126 114.356 64.0899C112.801 63.743 111.211 63.5429 109.633 63.3123C109.002 63.2205 108.921 63.2919 108.949 63.8573C109.056 65.9962 109.198 68.1332 109.315 70.2722C109.337 70.7028 109.541 70.8375 109.952 70.8661C110.525 70.9069 111.097 71.0049 111.666 71.1029C118.616 72.3132 124.8 75.1767 130.213 79.6976C130.886 80.2629 131.537 80.8508 132.295 81.512ZM151.503 114.693C151.103 114.693 150.902 114.674 150.705 114.695C148.678 114.911 146.653 115.142 144.626 115.346C144.165 115.393 144.122 115.662 144.081 116.038C143.561 120.906 142.002 125.447 139.677 129.733C138.193 132.466 136.321 134.927 134.25 137.238C133.909 137.618 133.862 137.879 134.244 138.254C134.848 138.85 135.438 139.467 135.975 140.122C136.397 140.638 136.291 141.11 135.772 141.52C135.327 141.873 134.842 141.914 134.274 141.485C133.709 141.059 133.227 140.524 132.707 140.038C132.123 139.493 132.095 139.489 131.556 140.001C129.925 141.551 128.157 142.92 126.282 144.165C121.473 147.357 116.201 149.331 110.523 150.264C109.521 150.429 109.517 150.415 109.437 151.48C109.305 153.244 109.17 155.007 109.045 156.77C109.023 157.097 109.041 157.426 109.041 157.75C109.237 157.783 109.335 157.815 109.431 157.811C109.772 157.801 110.113 157.799 110.45 157.758C113.936 157.334 117.35 156.603 120.634 155.336C126.602 153.029 131.946 149.731 136.558 145.267C139.95 141.983 142.9 138.346 145.277 134.268C148.094 129.437 149.982 124.251 150.945 118.738C151.174 117.442 151.307 116.13 151.503 114.693ZM76.8116 139.554C76.3911 139.961 76.0666 140.308 75.7074 140.614C75.2706 140.985 74.8298 141.367 74.342 141.663C73.9195 141.92 73.4092 141.751 73.0786 141.351C72.7785 140.987 72.7847 140.593 73.0418 140.224C73.2337 139.948 73.4725 139.703 73.7072 139.459C74.1072 139.042 74.5154 138.634 74.9298 138.23C75.2012 137.964 75.2216 137.715 74.9379 137.448C74.8134 137.332 74.6991 137.205 74.5869 137.079C69.2496 131.033 65.8126 124.114 64.9165 116.03C64.8737 115.634 64.7594 115.393 64.3349 115.35C62.2734 115.14 60.212 114.915 58.1506 114.709C57.971 114.691 57.7812 114.774 57.6036 114.809C57.6628 115.481 57.6954 116.091 57.773 116.695C58.3771 121.449 59.7018 126.004 61.755 130.325C65.7085 138.644 71.4253 145.475 79.1771 150.511C85.2532 154.458 91.8906 156.913 99.1178 157.693C100.016 157.791 100.042 157.785 99.9812 156.864C99.8547 154.931 99.6812 153.003 99.5648 151.068C99.5301 150.502 99.2811 150.296 98.7525 150.258C98.3137 150.225 97.881 150.121 97.4463 150.039C89.7414 148.584 82.9673 145.277 77.2402 139.887C77.1218 139.771 76.9789 139.683 76.8116 139.554ZM155.103 72.5112C155.287 72.4887 155.525 72.4765 155.758 72.4316C158.564 71.8968 161.008 70.6579 163.067 68.6639C164.99 66.8024 166.308 64.5859 167.012 62.0061C167.218 61.2509 167.055 60.8468 166.535 60.6529C166.03 60.4651 165.641 60.7018 165.316 61.4325C165.139 61.8346 165.016 62.2632 164.847 62.6694C163.049 66.9637 159.971 69.6844 155.291 70.4355C155.091 70.4681 154.891 70.513 154.699 70.5804C154.178 70.762 153.895 71.1865 153.966 71.6519C154.048 72.1703 154.47 72.505 155.103 72.5112ZM158.266 48.1639C157.985 48.1782 157.848 48.1782 157.713 48.1925C157.275 48.2414 156.836 48.2863 156.401 48.3517C152.27 48.9721 149.115 51.1499 146.684 54.4665C146.516 54.6951 146.4 55.0319 146.42 55.3054C146.447 55.6707 146.627 56.034 147.053 56.1422C147.443 56.2402 147.79 56.179 148.061 55.8463C148.617 55.1605 149.123 54.4257 149.743 53.8053C151.97 51.5785 154.697 50.4253 157.826 50.1825C158.26 50.1478 158.718 50.111 159.118 49.9539C159.707 49.7232 159.801 49.113 159.407 48.6129C159.069 48.1843 158.611 48.1353 158.266 48.1639ZM62.3571 69.1945C62.0775 69.466 61.7734 69.6741 61.5897 69.9599C61.3509 70.3334 61.5632 70.6824 61.8428 70.9559C63.296 72.3744 64.7431 73.8011 66.2208 75.1931C66.7616 75.7033 66.8535 75.6564 67.4535 75.0277C67.8923 74.5665 67.9311 74.3726 67.4841 73.9195C66.082 72.4969 64.6594 71.0927 63.2266 69.6986C63.0245 69.4986 62.7225 69.4007 62.3571 69.1945ZM147.186 70.364C147.129 70.1905 147.102 70.0558 147.041 69.9395C146.704 69.2864 146.09 69.1353 145.543 69.6435C144.675 70.4518 143.859 71.3131 143.02 72.1519C142.469 72.703 141.916 73.252 141.367 73.8052C141.024 74.1501 141.024 74.4971 141.338 74.8747C141.906 75.5543 142.132 75.6176 142.808 74.9767C144.137 73.7194 145.42 72.4132 146.706 71.111C146.914 70.9049 147.033 70.611 147.186 70.364ZM142.11 144.445C141.859 144.757 141.608 145.061 141.367 145.375C141.146 145.661 141.322 145.894 141.508 146.098C141.922 146.549 142.347 146.99 142.775 147.427C143.418 148.082 144.065 148.735 144.718 149.378C144.984 149.639 145.255 149.906 145.559 150.117C145.996 150.417 146.476 150.323 146.839 149.929C147.202 149.535 147.253 149.223 146.818 148.768C145.669 147.563 144.471 146.404 143.285 145.235C143.094 145.045 142.875 144.877 142.655 144.718C142.522 144.622 142.361 144.567 142.11 144.445ZM67.6862 145.639C67.378 145.273 67.1106 144.884 66.7596 144.594C66.6759 144.524 66.2718 144.737 66.0942 144.904C64.9023 146.016 63.7266 147.151 62.5531 148.284C62.3836 148.447 62.2408 148.641 62.0918 148.827C61.8162 149.17 61.8652 149.515 62.0918 149.86C62.4592 150.415 63.1 150.486 63.6593 149.935C64.8696 148.745 66.0411 147.512 67.2209 146.29C67.3821 146.12 67.4943 145.91 67.6862 145.639Z" fill="#F2E6D8"/>
<path d="M104.478 153.244C104.427 152.878 104.359 152.517 104.329 152.15C103.998 148.153 103.669 144.155 103.345 140.157C103.065 136.701 102.792 133.244 102.512 129.786C102.447 128.984 102.432 129.002 101.647 128.825C100.355 128.533 99.0199 128.347 97.7912 127.884C92.0743 125.731 88.3025 121.708 86.5554 115.834C86.3145 115.021 86.0941 114.187 86.0145 113.35C85.9533 112.711 85.6512 112.562 85.1206 112.521C84.4082 112.466 83.7 112.376 82.9897 112.315C80.2813 112.086 77.5688 111.886 74.8624 111.631C72.2275 111.382 69.5966 111.08 66.9657 110.792C66.6657 110.76 66.3718 110.666 66.0636 110.462C67.1964 110.327 68.3271 110.184 69.4619 110.062C71.2845 109.864 73.1071 109.662 74.9318 109.492C76.8238 109.317 78.7199 109.18 80.614 109.019C82.206 108.884 83.7939 108.725 85.3859 108.602C85.8329 108.568 85.9247 108.337 85.9676 107.945C86.1411 106.39 86.3758 104.843 86.9432 103.371C89.5108 96.736 94.3112 92.7764 101.292 91.4599C102.592 91.215 102.583 91.2497 102.694 89.919C103 86.2268 103.326 82.5366 103.635 78.8444C103.88 75.8972 104.11 72.9479 104.349 70.0007C104.365 69.8048 104.396 69.6088 104.569 69.3904C104.594 69.4884 104.631 69.5864 104.639 69.6864C104.882 72.4622 105.131 75.238 105.361 78.0137C105.553 80.318 105.721 82.6223 105.9 84.9267C106.045 86.7574 106.19 88.5862 106.343 90.4149C106.404 91.1538 106.41 91.1803 107.164 91.2987C110.023 91.7498 112.695 92.6988 115.099 94.3194C119.503 97.287 122.116 101.424 123.051 106.639C123.157 107.235 123.083 108 123.43 108.378C123.724 108.7 124.504 108.59 125.071 108.649C126.963 108.843 128.855 109.029 130.747 109.215C133.35 109.47 135.954 109.715 138.556 109.974C140.005 110.119 141.455 110.288 142.916 110.641C142.563 110.697 142.212 110.766 141.857 110.805C138.748 111.135 135.642 111.472 132.531 111.778C130.672 111.962 128.806 112.091 126.945 112.248C125.896 112.337 124.847 112.456 123.796 112.521C123.29 112.552 123.128 112.754 123.061 113.26C122.669 116.164 121.736 118.875 120.006 121.275C117.167 125.214 113.289 127.533 108.602 128.59C108.106 128.702 107.6 128.78 107.094 128.823C106.676 128.86 106.512 129.031 106.484 129.455C106.384 130.982 106.257 132.507 106.131 134.031C105.694 139.248 105.247 144.465 104.814 149.682C104.716 150.868 104.665 152.058 104.592 153.246C104.557 153.248 104.516 153.246 104.478 153.244ZM97.5218 110.417C97.5116 114.356 100.673 117.556 104.602 117.587C108.366 117.616 111.621 114.358 111.617 110.568C111.611 106.696 108.407 103.465 104.565 103.461C100.691 103.459 97.532 106.58 97.5218 110.417ZM89.872 102.816C90.0721 103.088 90.2231 103.449 90.4945 103.628C90.8599 103.869 91.2905 103.786 91.5845 103.414C91.7722 103.175 91.9253 102.91 92.0845 102.649C92.3682 102.188 92.605 101.687 92.9336 101.261C95.197 98.3218 98.1259 96.4339 101.794 95.7379C102.057 95.6889 102.33 95.6154 102.557 95.4807C102.928 95.2603 103.147 94.9113 103.088 94.4602C103.035 94.0643 102.61 93.7051 102.137 93.6744C101.836 93.6561 101.522 93.6806 101.228 93.75C96.4196 94.8868 92.707 97.5054 90.3027 101.875C90.1598 102.139 90.0516 102.422 89.872 102.816Z" fill="#F2E6D8"/>
<path d="M85.1226 127.192C86.3758 127.178 87.3208 128.09 87.3493 129.343C87.3779 130.566 86.4452 131.503 85.1654 131.535C83.9225 131.568 83.053 130.66 83.0408 129.323C83.0305 128.055 83.8612 127.206 85.1226 127.192Z" fill="#F2E6D8"/>
<path d="M123.908 127.194C125.067 127.192 126.047 128.157 126.071 129.327C126.096 130.492 124.969 131.601 123.765 131.59C122.618 131.58 121.728 130.613 121.72 129.366C121.71 128.102 122.626 127.196 123.908 127.194Z" fill="#F2E6D8"/>
<path d="M123.865 93.5214C122.653 93.5255 121.794 92.6437 121.783 91.3885C121.773 90.119 122.69 89.1965 123.947 89.2128C125.1 89.2271 126.106 90.2823 126.106 91.4742C126.104 92.5274 125.02 93.5173 123.865 93.5214Z" fill="#F2E6D8"/>
<path d="M84.9695 93.5418C83.8327 93.5357 83.0346 92.6417 83.0489 91.3885C83.0612 90.1374 83.9225 89.2332 85.1144 89.221C86.3145 89.2108 87.3106 90.1884 87.3289 91.3967C87.3453 92.5723 86.2696 93.55 84.9695 93.5418Z" fill="#F2E6D8"/>
</svg>
